<?xml version="1.0" encoding="UTF-8" standalone="no"?>
<!-- Created with Inkscape (http://www.inkscape.org/) -->

<svg
   xmlns:dc="http://purl.org/dc/elements/1.1/"
   xmlns:cc="http://creativecommons.org/ns#"
   xmlns:rdf="http://www.w3.org/1999/02/22-rdf-syntax-ns#"
   xmlns:svg="http://www.w3.org/2000/svg"
   xmlns="http://www.w3.org/2000/svg"
   xmlns:inkscape="http://www.inkscape.org/namespaces/inkscape"
   version="1.1"
   width="540"
   height="540"
   id="svg2"
   xml:space="preserve"><metadata
     id="metadata8"><rdf:RDF><cc:Work
         rdf:about=""><dc:format>image/svg+xml</dc:format><dc:type
           rdf:resource="http://purl.org/dc/dcmitype/StillImage" /></cc:Work></rdf:RDF></metadata><defs
     id="defs6" /><g
     transform="matrix(1.25,0,0,-1.25,0,540)"
     id="g10"><g
       transform="scale(0.1,0.1)"
       id="g12"><path
         d="m 1313.5,1845.84 c -176.52,28.57 -387.93,70.74 -535.867,0 -68.75,-32.89 -118.16,-86.4 -150.961,-172.5 -53.332,-140 169.598,-267.39 346.66,-286.67 142.298,-15.5 264.648,-0.14 366.668,46.67 115.26,52.88 192.51,185.95 220.83,321.81 -36.62,58.92 -144.97,74.12 -247.33,90.69 m 2374.29,1698.28 c -136.91,10.83 -155.53,123.89 -329.76,131.9 -198.87,9.14 -416.83,-57.7 -560.59,-123.65 -195.63,-89.75 -359.07,-279.84 -486.41,-486.41 -115.19,-186.86 -263.63,-425.03 -346.26,-626.56 -22.72,-55.43 -26.63,-117.42 -49.46,-173.12 -32.54,-79.37 -87.9,-150.67 -123.66,-230.83 -67.93,-152.26 -92.95,-319.98 -173.13,-453.43 -56.22,-93.57 -159.91,-202.6 -239.07,-247.31 -197.95,-111.82 -576.477,-78.58 -758.458,32.98 -33.762,20.7 -63.359,47.7 -86.652,79.7 -55.969,76.92 -75.481,182.75 -28.758,299.52 126.949,317.33 771.218,288.85 1104.708,156.64 61.66,63.71 86.19,157.56 123.64,239.09 89.37,194.44 144.04,404.58 247.34,610.04 26.35,52.4 63.31,102.92 90.68,156.64 29.62,58.14 42.56,124.74 74.19,173.13 28.87,44.13 80.51,79.68 115.43,123.66 171.61,216.2 397.61,428.9 684.26,511.13 119.67,34.34 254.69,43.73 395.71,74.21 120.16,25.96 439.56,-84.46 346.25,-247.33"
         inkscape:connector-curvature="0"
         id="path14"
         style="fill:#1e59ae;fill-opacity:1;fill-rule:evenodd;stroke:none" /><path
         d="m 2756.21,2480.63 c 93.97,8.2 258.7,86.65 346.25,140.15 89.12,54.46 232.49,167.41 255.57,239.08 82,254.54 -164.27,414.2 -379.23,387.46 -118.78,-14.76 -286.61,-156.23 -345.47,-233.99 -72.75,-96.1 -116.24,-202.23 -166.66,-366.66 -41.2,-134.37 -110,-280 -193.33,-400 -69.48,-100.07 -70.75,-212.69 -110.71,-310.15 -22.58,-55.07 -63.35,-143.55 -57.7,-173.12 8.86,-46.43 60.22,-65.65 82.44,-98.94 36.73,-54.98 47.62,-111.15 74.2,-140.13 102.5,-111.83 397.73,-207.55 593.57,-140.16 52.14,17.95 160.61,95.96 230.84,156.64 110.98,95.91 250.06,293.08 230.83,469.9 -16.22,149.05 -205.15,246.73 -313.27,313.28 -47.32,29.12 -94.97,58.6 -148.4,65.95 -147.04,20.23 -340.61,-54.02 -346.25,123.67 95.78,16.21 143.88,-42 247.32,-32.98 m 263.82,-41.23 c 178.62,-154.09 429.98,-209.54 436.92,-511.12 7.76,-335.84 -266.97,-577.07 -568.84,-659.52 -134.36,-36.72 -282.97,-4.8 -428.69,41.21 -205.51,64.89 -301.61,144.19 -362.74,354.49 -61.59,-51.66 -90.07,-135.64 -140.16,-206.1 -88,-123.85 -215.05,-250.5 -338,-354.49 C 1476.75,983.961 1373.93,881.07 1173.35,798.84 998.609,727.211 754.5,644.031 563.289,757.621 480.07,807.059 397.461,930.762 480.84,1021.44 c 72.941,-6.48 69.691,-91.499 107.18,-131.909 40.902,-44.09 97.582,-46.07 148.402,-82.449 379.028,5.098 554.068,154.727 766.688,329.768 222.54,183.22 380.85,413.29 511.13,708.99 57.8,131.19 107.88,289.3 173.13,436.92 43.12,97.59 96.69,192.86 140.15,296.8 100.92,241.44 157.19,452.45 345.81,607.11 118.68,97.29 434.05,223.92 635.23,93.63 123.4,-79.9 209.78,-258.5 156.64,-428.69 -65.89,-211.02 -291.57,-296.31 -445.17,-412.21"
         inkscape:connector-curvature="0"
         id="path16"
         style="fill:#231f20;fill-opacity:1;fill-rule:evenodd;stroke:none" /></g></g></svg>